<?xml version="1.0" encoding="UTF-8"?>
<svg width="206px" height="307px" viewBox="0 0 206 307" version="1.1" xmlns="http://www.w3.org/2000/svg" xmlns:xlink="http://www.w3.org/1999/xlink">
    <title>形状</title>
    <defs>
        <linearGradient x1="50%" y1="0%" x2="50%" y2="100%" id="linearGradient-1">
            <stop stop-color="#FFFFFF" offset="0%"></stop>
            <stop stop-color="#FFFFFF" stop-opacity="0.792013635" offset="100%"></stop>
        </linearGradient>
    </defs>
    <g id="页面-1" stroke="none" stroke-width="1" fill="none" fill-rule="evenodd">
        <g id="01-首页" transform="translate(-654, -9770)" fill="url(#linearGradient-1)" fill-rule="nonzero">
            <g id="编组-7" transform="translate(180, 9487)">
                <g id="bluetooth-fill" transform="translate(474, 283)">
                    <path d="M139.408411,153.5 L206,220.16505 L119.260737,307 L88.5945664,307 L88.5945664,204.3699 L21.6809826,271.3573 L0,249.63705 L88.5945664,160.94475 L88.5945664,146.05525 L0,57.3629502 L21.6809826,35.6427 L88.5945664,102.6301 L88.5945664,0 L119.260737,0 L206,86.8349502 L139.408411,153.5 Z M119,176 L119,263 L162,219.49231 L119,176 Z M119,130 L162,86.5076896 L119,43 L119,130 Z" id="形状"></path>
                </g>
            </g>
        </g>
    </g>
</svg>