<?xml version="1.0" encoding="UTF-8"?>
<svg width="48px" height="48px" viewBox="0 0 48 48" version="1.1" xmlns="http://www.w3.org/2000/svg" xmlns:xlink="http://www.w3.org/1999/xlink">
    <title>左切换（点击</title>
    <g id="页面-1" stroke="none" stroke-width="1" fill="none" fill-rule="evenodd">
        <g id="01-首页" transform="translate(-1280, -8233)">
            <g id="左切换（点击" transform="translate(1280, 8233)">
                <rect id="chevron-left-circle-(Background)" opacity="0" x="0" y="0" width="48" height="48"></rect>
                <path d="M24,2.99999908 C35.5979805,2.99999959 44.9999996,12.4020195 44.9999991,24 C44.9999986,35.5979798 35.5979787,44.9999996 23.9999982,44.9999991 C12.4020184,44.9999986 2.99999858,35.5979779 2.99999908,23.9999982 C2.99999959,12.4020177 12.4020202,2.99999858 24,2.99999908 Z M26.0574633,15.1968411 C25.7392035,15.1968411 25.4339788,15.3232693 25.2089351,15.548313 L17.6058865,23.1513621 C17.1372574,23.6199912 17.1372573,24.379789 17.6058863,24.8484182 L25.2089343,32.45147 C25.6775633,32.9200993 26.4373613,32.9200995 26.9059906,32.4514704 C27.1310344,32.2264267 27.2574626,31.921202 27.2574627,31.6029421 L27.2574633,16.3968412 C27.2574634,15.7340995 26.7202051,15.1968412 26.0574633,15.1968411 Z" id="chevron-left-circle" fill="#989DB0"></path>
            </g>
        </g>
    </g>
</svg>