<?xml version="1.0" encoding="UTF-8"?>
<svg width="16px" height="16px" viewBox="0 0 16 16" version="1.1" xmlns="http://www.w3.org/2000/svg" xmlns:xlink="http://www.w3.org/1999/xlink">
    <title>再次播放图标（配文字</title>
    <g id="页面-1" stroke="none" stroke-width="1" fill="none" fill-rule="evenodd">
        <g id="01-首页" transform="translate(-1008, -2762)">
            <g id="编组-8" transform="translate(907, 2752)">
                <g id="再次播放图标（配文字" transform="translate(101, 10)">
                    <rect id="矩形" x="0" y="0" width="16" height="16"></rect>
                    <path d="M8,2.13333334 L5.52375,2.13333334 L6.27625001,1.38666668 L4.87625,0 L2.4,2.45333333 L1.75250001,3.09333334 L4.87625,6.18666666 L6.27625001,4.80000001 L5.52375,4.05333335 L7.8915,4.05333335 C10.6915,4.05333335 12.84575,6.29333334 12.84575,8.95999999 C12.84575,11.6266667 10.58475,13.8666667 7.89325001,13.8666667 C5.20000001,13.8666667 2.939,11.7333333 2.939,9.06666667 C2.939,8.53333334 2.5085,8.10666667 1.9695,8.10666667 C1.71534205,8.10239181 1.47001956,8.20136126 1.28799285,8.38160431 C1.10596615,8.56184736 1.00229721,8.80844962 1,9.06666667 C1,12.9066667 4.12375,16 8,16 C11.87625,16 15,12.9066667 15,9.06666667 C15,5.22666666 11.87625,2.13333334 8,2.13333334 Z" id="路径" fill="#7F8287" fill-rule="nonzero"></path>
                </g>
            </g>
        </g>
    </g>
</svg>