<?xml version="1.0" encoding="UTF-8"?>
<svg width="48px" height="48px" viewBox="0 0 48 48" version="1.1" xmlns="http://www.w3.org/2000/svg" xmlns:xlink="http://www.w3.org/1999/xlink">
    <title>再次重播图标（配图层</title>
    <g id="页面-1" stroke="none" stroke-width="1" fill="none" fill-rule="evenodd">
        <g id="01-首页" transform="translate(-1652, -3823)">
            <g id="再次重播图标（配图层" transform="translate(1652, 3823)">
                <circle id="椭圆形" fill-opacity="0.3" fill="#000000" cx="24" cy="24" r="24"></circle>
                <path d="M24,14.3333333 L20.10875,14.3333333 L21.29125,13.1666667 L19.09125,11 L15.2,14.8333333 L14.1825,15.8333333 L19.09125,20.6666667 L21.29125,18.5 L20.10875,17.3333334 L23.8295,17.3333334 C28.2295,17.3333334 31.61475,20.8333333 31.61475,25 C31.61475,29.1666667 28.06175,32.6666667 23.83225,32.6666667 C19.6,32.6666667 16.047,29.3333333 16.047,25.1666667 C16.047,24.3333333 15.3705,23.6666667 14.5235,23.6666667 C14.1241089,23.6599872 13.7386022,23.814627 13.4525602,24.0962567 C13.1665182,24.3778865 13.0036099,24.7632025 13,25.1666667 C13,31.1666667 17.90875,36 24,36 C30.09125,36 35,31.1666667 35,25.1666667 C35,19.1666667 30.09125,14.3333333 24,14.3333333 Z" id="路径" fill="#FFFFFF" fill-rule="nonzero"></path>
            </g>
        </g>
    </g>
</svg>