<svg xmlns="http://www.w3.org/2000/svg" viewBox="0 0 24 24" class="design-iconfont">
  <path d="M20.1541722,2.26708535e-16 C21.4914503,-1.31724187e-16 21.9763797,0.139238417 22.4652686,0.400699056 C22.9541574,0.662159695 23.3378403,1.04584256 23.5993009,1.53473144 C23.8607616,2.02362033 24,2.50854969 24,3.8458278 L24,20.1541722 C24,21.4914503 23.8607616,21.9763797 23.5993009,22.4652686 C23.3378403,22.9541574 22.9541574,23.3378403 22.4652686,23.5993009 C21.9763797,23.8607616 21.4914503,24 20.1541722,24 L3.8458278,24 C2.50854969,24 2.02362033,23.8607616 1.53473144,23.5993009 C1.04584256,23.3378403 0.662159695,22.9541574 0.400699056,22.4652686 C0.139238417,21.9763797 0,21.4914503 0,20.1541722 L0,3.8458278 C0,2.50854969 0.139238417,2.02362033 0.400699056,1.53473144 C0.662159695,1.04584256 1.04584256,0.662159695 1.53473144,0.400699056 C2.02362033,0.139238417 2.50854969,0 3.8458278,0 L20.1541722,2.26708535e-16 Z M7.90000057,5.59139013 C7.5,5.36045074 7,5.64912558 7,6.11100531 L7,17.8889523 C7,18.350832 7.5,18.6395073 7.900002,18.4085674 L18.1000004,12.519577 C18.5,12.2886362 18.5,11.7112856 18.0999985,11.4803457 Z" fill="#FFF" fill-rule="evenodd"/>
</svg>
